<?xml version="1.0" encoding="UTF-8"?>
<svg version="1.1" xmlns="http://www.w3.org/2000/svg" width="120" height="150">
<path d="M0 0 C39.6 0 79.2 0 120 0 C120 49.5 120 99 120 150 C80.4 150 40.8 150 0 150 C0 100.5 0 51 0 0 Z " fill="#FDFCFA" transform="translate(0,0)"/>
<path d="M0 0 C12.76540044 6.39212814 20.21910176 17.04793028 24.64453125 30.32421875 C25.72991087 43.68684323 23.18388856 54.21437806 14.91015625 64.84765625 C11.26714508 68.82984432 7.32417158 71.6707401 2.64453125 74.32421875 C1.92136719 74.75734375 1.19820312 75.19046875 0.453125 75.63671875 C-8.31396233 80.02788597 -20.06838923 79.71960548 -29.48828125 77.62890625 C-31.94926385 76.71085945 -34.09648206 75.66057901 -36.35546875 74.32421875 C-37.14179687 73.87691406 -37.928125 73.42960937 -38.73828125 72.96875 C-48.53031956 66.94163731 -54.32786038 58.29761224 -58.00390625 47.40234375 C-59.9575749 35.85399131 -58.40804408 24.82440363 -51.66796875 15.13671875 C-38.58829113 -0.86048095 -19.75143154 -7.70062652 0 0 Z " fill="#75C2CA" transform="translate(77.35546875,19.67578125)"/>
<path d="M0 0 C6.71054394 0.419409 11.89658348 5.58435901 16.25 10.3125 C23.40834649 19.36800389 24.24676492 28.77365946 23 40 C20.78671152 50.93547859 14.4621558 57.7249034 5.40625 63.7734375 C-3.56012204 68.34395831 -16.32593286 68.70640261 -26 65.9375 C-30.95248189 63.94100045 -34.99188328 60.45854043 -39 57 C-38.67 56.34 -38.34 55.68 -38 55 C-39.16086484 52.71890789 -39.16086484 52.71890789 -40.8125 50.25 C-44.59427227 44.14300811 -46 40.32338305 -46 33 C-39.565 32.505 -39.565 32.505 -33 32 C-33.58910156 31.01257813 -34.17820312 30.02515625 -34.78515625 29.0078125 C-35.54469193 27.71378874 -36.30378366 26.41950433 -37.0625 25.125 C-37.45244141 24.47402344 -37.84238281 23.82304688 -38.24414062 23.15234375 C-39.22444533 21.46934275 -40.11898432 19.73703801 -41 18 C-40.67 17.34 -40.34 16.68 -40 16 C-38.78763672 17.01320313 -38.78763672 17.01320313 -37.55078125 18.046875 C-36.47137645 18.94794336 -35.39194811 19.84898352 -34.3125 20.75 C-33.78205078 21.1934375 -33.25160156 21.636875 -32.70507812 22.09375 C-31.64536426 22.97792844 -30.582616 23.8584829 -29.5168457 24.73535156 C-28.13303068 25.88908757 -26.7831866 27.08326071 -25.4375 28.28125 C-22.67386872 30.22996437 -21.03047171 30.57170818 -17.6875 30.75 C-16.80449219 30.80671875 -15.92148437 30.8634375 -15.01171875 30.921875 C-14.34785156 30.94765625 -13.68398438 30.9734375 -13 31 C-13 29.68 -13 28.36 -13 27 C-14.32 26.34 -15.64 25.68 -17 25 C-16.125 21.125 -16.125 21.125 -15 20 C-13.00041636 19.95919217 -10.99954746 19.95745644 -9 20 C-8.375 22.375 -8.375 22.375 -8 25 C-8.66 25.66 -9.32 26.32 -10 27 C-10.6425235 29.06874034 -10.6425235 29.06874034 -11 31 C-1.85911619 31.3172541 3.09877989 27.59672119 10 22 C11.3874105 20.98834651 12.78188228 19.98619953 14.1875 19 C15.5796875 18.01 15.5796875 18.01 17 17 C14.03891461 10.83107211 10.57824853 7.83297473 5 4 C3.32655239 2.67518731 1.65651812 1.34592097 0 0 Z " fill="#79C6CF" transform="translate(73,26)"/>
<path d="M0 0 C3.875 1.875 3.875 1.875 5 3 C5.10942128 4.86750665 5.15587207 6.73877143 5.17578125 8.609375 C5.19962891 9.75664063 5.22347656 10.90390625 5.24804688 12.0859375 C5.29073771 14.51284656 5.32213809 16.93998261 5.34179688 19.3671875 C5.36951172 20.51960938 5.39722656 21.67203125 5.42578125 22.859375 C5.44036377 23.91608398 5.45494629 24.97279297 5.4699707 26.06152344 C6.13151127 29.72909702 7.40053674 31.36526548 10 34 C11.89015911 35.2593875 11.89015911 35.2593875 13.984375 36.03125 C14.77134766 36.35222656 15.55832031 36.67320313 16.36914062 37.00390625 C22.38025057 39.27982761 28.41264986 41.49108788 34.46875 43.64453125 C46.52624183 48.05248367 46.52624183 48.05248367 49 53 C49.08471364 54.81341842 49.10721083 56.62994161 49.09765625 58.4453125 C49.09443359 59.52167969 49.09121094 60.59804687 49.08789062 61.70703125 C49.07532227 63.39892578 49.07532227 63.39892578 49.0625 65.125 C49.05798828 66.26066406 49.05347656 67.39632812 49.04882812 68.56640625 C49.03701628 71.37762647 49.01908041 74.18881972 49 77 C44.71 77 40.42 77 36 77 C35.505 75.96875 35.01 74.9375 34.5 73.875 C30.12582428 66.27900053 22.18009725 62.94886168 14.4375 59.625 C0.98021339 53.51028165 0.98021339 53.51028165 -2 47 C-4.42406484 39.12388622 -4.37233638 31.18169789 -4.37060547 23.0144043 C-4.37502379 20.67490158 -4.41156504 18.33722273 -4.44921875 15.99804688 C-4.45508019 14.50261055 -4.45905408 13.00716537 -4.4609375 11.51171875 C-4.48249405 10.46947395 -4.48249405 10.46947395 -4.50448608 9.40617371 C-4.47136882 5.90054028 -4.23026575 4.28028135 -1.97119141 1.53051758 C-1.32069824 1.02544678 -0.67020508 0.52037598 0 0 Z " fill="#EB9434" transform="translate(12,56)"/>
<path d="M0 0 C2.93453261 0.36681658 3.86437246 0.86437246 6 3 C6.22475766 5.68047117 6.3281582 8.25438137 6.3359375 10.9375 C6.3425943 11.73220703 6.3492511 12.52691406 6.35610962 13.34570312 C6.36625046 15.03366786 6.3709262 16.7216728 6.37060547 18.40966797 C6.37493657 20.96261416 6.41111972 23.5137711 6.44921875 26.06640625 C6.52205125 36.44058136 6.40257397 45.75764124 -1.25 53.625 C-5.7989102 57.26240835 -11.02065356 59.71215523 -16.27636719 62.16064453 C-21.83555686 64.76525277 -26.66594175 67.6655068 -30 73 C-30.33 74.32 -30.66 75.64 -31 77 C-34.96 77 -38.92 77 -43 77 C-43.13495383 72.93639025 -43.23411619 68.87726027 -43.3125 64.8125 C-43.35439453 63.66201172 -43.39628906 62.51152344 -43.43945312 61.32617188 C-43.56191986 52.87596689 -43.56191986 52.87596689 -41.04296875 48.94921875 C-37.17101127 46.46897898 -33.26996481 44.68427324 -29 43 C-28.15856445 42.65533691 -27.31712891 42.31067383 -26.45019531 41.95556641 C-23.84754826 40.89289222 -21.23770184 39.85018262 -18.625 38.8125 C-17.73683594 38.45736328 -16.84867188 38.10222656 -15.93359375 37.73632812 C-12.63734604 36.42231712 -9.36718975 35.12239658 -6 34 C-3.50978254 29.84963757 -2.86621388 26.09093243 -2.75390625 21.30859375 C-2.72103516 20.19935547 -2.68816406 19.09011719 -2.65429688 17.94726562 C-2.59299944 15.60361697 -2.53572061 13.25985983 -2.48242188 10.91601562 C-2.44826172 9.80806641 -2.41410156 8.70011719 -2.37890625 7.55859375 C-2.34132202 6.03190063 -2.34132202 6.03190063 -2.30297852 4.47436523 C-2 2 -2 2 0 0 Z " fill="#EB9333" transform="translate(107,56)"/>
<path d="M0 0 C12.76540044 6.39212814 20.21910176 17.04793028 24.64453125 30.32421875 C25.72991087 43.68684323 23.18388856 54.21437806 14.91015625 64.84765625 C11.26714508 68.82984432 7.32417158 71.6707401 2.64453125 74.32421875 C1.92136719 74.75734375 1.19820312 75.19046875 0.453125 75.63671875 C-8.31396233 80.02788597 -20.06838923 79.71960548 -29.48828125 77.62890625 C-31.94926385 76.71085945 -34.09648206 75.66057901 -36.35546875 74.32421875 C-37.14179687 73.87691406 -37.928125 73.42960937 -38.73828125 72.96875 C-48.53031956 66.94163731 -54.32786038 58.29761224 -58.00390625 47.40234375 C-59.9575749 35.85399131 -58.40804408 24.82440363 -51.66796875 15.13671875 C-38.58829113 -0.86048095 -19.75143154 -7.70062652 0 0 Z M-47.35546875 14.32421875 C-54.55698155 24.24497497 -56.3388781 33.13741173 -55.35546875 45.32421875 C-53.20528357 55.56013026 -47.17662715 64.15184068 -38.55078125 70.0390625 C-28.9594819 75.65389789 -18.29361678 77.2517676 -7.35546875 75.32421875 C1.70698113 72.62426607 10.70118816 67.59228816 15.64453125 59.32421875 C21.0761422 49.01992251 23.59411976 39.57906181 20.84375 27.93359375 C17.36568948 17.84602302 11.09852373 9.49223805 1.64453125 4.28515625 C0.98453125 3.96804687 0.32453125 3.6509375 -0.35546875 3.32421875 C-0.99484375 3.00710937 -1.63421875 2.69 -2.29296875 2.36328125 C-18.71657181 -4.41767608 -35.98154747 1.53361689 -47.35546875 14.32421875 Z " fill="#576EAC" transform="translate(77.35546875,19.67578125)"/>
<path d="M0 0 C10.43473199 5.9416276 17.028368 14.286986 20.66796875 25.703125 C22.74415797 37.04567451 20.20488098 46.86106911 14.2890625 56.54296875 C11.13933977 60.94943871 7.65473325 63.93358245 3.0390625 66.73046875 C2.27207031 67.21773438 1.50507812 67.705 0.71484375 68.20703125 C-8.65846217 73.34584215 -19.4635022 73.21365293 -29.69140625 70.87890625 C-41.24134333 66.89803696 -48.65234051 59.55698729 -53.92578125 48.75390625 C-57.54445668 39.84896303 -57.35134273 29.35379732 -54.0234375 20.41796875 C-48.79910348 9.51437274 -40.28169227 2.051875 -29.1328125 -2.3984375 C-19.50127186 -5.04355272 -9.06084719 -4.01330328 0 0 Z M-45.2109375 11.91796875 C-52.59621616 21.40743295 -54.39913964 31.01608036 -52.9609375 42.73046875 C-50.06784923 53.54277321 -44.52330273 60.33771864 -35.40234375 66.46875 C-26.02132568 71.31686014 -13.02835375 71.41861306 -3.0234375 68.29296875 C5.9444757 64.40277809 12.20687312 57.81512926 16.19921875 48.9921875 C19.25403654 40.76549214 19.53936863 30.58503071 16.9453125 22.19140625 C11.60159612 10.96391704 4.38167861 5.49788709 -6.9609375 0.73046875 C-20.72040774 -3.70462263 -35.62187779 1.71736187 -45.2109375 11.91796875 Z " fill="#EEF4F7" transform="translate(77.9609375,23.26953125)"/>
<path d="M0 0 C6.93 0 13.86 0 21 0 C21 3.3 21 6.6 21 10 C1.33333333 10 -18.33333333 10 -38 10 C-39 8 -39 8 -39 1 C-26.79 1 -14.58 1 -2 1 C-2 1.99 -2 2.98 -2 4 C-1.34 2.68 -0.68 1.36 0 0 Z " fill="#7E75A7" transform="translate(72,134)"/>
<path d="M0 0 C-0.55429687 0.25394531 -1.10859375 0.50789063 -1.6796875 0.76953125 C-2.40414062 1.11371094 -3.12859375 1.45789063 -3.875 1.8125 C-4.59429687 2.14894531 -5.31359375 2.48539063 -6.0546875 2.83203125 C-8.30542806 3.99467097 -8.30542806 3.99467097 -10 7 C-8.02 8.32 -6.04 9.64 -4 11 C-3.731875 10.278125 -3.46375 9.55625 -3.1875 8.8125 C-2 6 -2 6 1 1 C6.61 1.66 12.22 2.32 18 3 C17.34 3.66 16.68 4.32 16 5 C14.68 5 13.36 5 12 5 C12 7.97 12 10.94 12 14 C11.67 14 11.34 14 11 14 C11 11.03 11 8.06 11 5 C8.03 4.67 5.06 4.34 2 4 C-0.2013866 7.80427492 -0.2013866 7.80427492 -1 12 C4.94 13.485 4.94 13.485 11 15 C11 15.33 11 15.66 11 16 C0.44191344 16.3690205 0.44191344 16.3690205 -4 14 C-4.33 17.3 -4.66 20.6 -5 24 C-5.62648438 23.57847656 -6.25296875 23.15695313 -6.8984375 22.72265625 C-7.71570313 22.17480469 -8.53296875 21.62695312 -9.375 21.0625 C-10.18710937 20.51722656 -10.99921875 19.97195312 -11.8359375 19.41015625 C-13.92719184 17.98906121 -13.92719184 17.98906121 -16 17 C-13.36 21.95 -10.72 26.9 -8 32 C-12.62 32 -17.24 32 -22 32 C-20.49404042 38.97497071 -19.15666113 44.64820833 -14.98828125 50.4765625 C-14 52 -14 52 -14 54 C-13.34 54.33 -12.68 54.66 -12 55 C-14.296875 54.8671875 -14.296875 54.8671875 -17 54 C-18.765625 51.3828125 -18.765625 51.3828125 -20.25 48.125 C-20.75015625 47.05507812 -21.2503125 45.98515625 -21.765625 44.8828125 C-25.13628832 37.01082031 -25.75983957 27.26265387 -22.75390625 19.11328125 C-19.20123189 11.52384988 -10.33584996 -3.69137499 0 0 Z " fill="#6CBFC7" transform="translate(49,27)"/>
<path d="M0 0 C0 3.69621954 -1.06937072 5.20302424 -2.9296875 8.3828125 C-3.55601074 9.46062988 -4.18233398 10.53844727 -4.82763672 11.64892578 C-5.50985505 12.80775621 -6.19231395 13.96644505 -6.875 15.125 C-7.56186572 16.30032349 -8.24822464 17.47594329 -8.93408203 18.65185547 C-10.30534351 21.00048864 -11.68038227 23.34684508 -13.05859375 25.69140625 C-14.77818924 28.62198447 -16.48610679 31.55883189 -18.1875 34.5 C-19.08301982 36.0418488 -19.97882808 37.58353013 -20.875 39.125 C-21.28476074 39.83414551 -21.69452148 40.54329102 -22.11669922 41.27392578 C-23.04942997 42.86624488 -24.01998808 44.43633654 -25 46 C-25.33 46 -25.66 46 -26 46 C-28.85545215 23.2857323 -28.85545215 23.2857323 -24.36230469 16.54199219 C-20.23524748 12.55385415 -15.43904516 9.85910268 -10.34765625 7.27880859 C-6.60896713 5.24228056 -3.32049486 2.6500984 0 0 Z " fill="#EC9434" transform="translate(90,43)"/>
<path d="M0 0 C4.92566034 3.67009986 9.81756785 7.38145142 14.6875 11.125 C15.23365967 11.54442871 15.77981934 11.96385742 16.3425293 12.39599609 C17.89804081 13.59341614 19.44910014 14.79661292 21 16 C21.87785156 16.5789502 22.75570312 17.15790039 23.66015625 17.75439453 C26 20 26 20 26.56762695 22.93261719 C26.54144287 24.04282227 26.51525879 25.15302734 26.48828125 26.296875 C26.47216797 27.50214844 26.45605469 28.70742187 26.43945312 29.94921875 C26.39755859 31.20347656 26.35566406 32.45773438 26.3125 33.75 C26.28994141 35.01972656 26.26738281 36.28945312 26.24414062 37.59765625 C26.18520639 40.73295773 26.10297079 43.86588595 26 47 C22.9774103 43.29381344 20.48519001 39.60337754 18.125 35.4375 C17.60292969 34.51614258 17.60292969 34.51614258 17.0703125 33.57617188 C14.40639781 28.83107383 11.97194959 23.99222817 9.5859375 19.1015625 C7.39740163 14.82151945 4.989835 10.67754538 2.5390625 6.54296875 C0 2.20870972 0 2.20870972 0 0 Z " fill="#EB9434" transform="translate(32,42)"/>
<path d="M0 0 C1.91831905 0.09637488 3.83614764 0.2125031 5.75 0.375 C5.57608128 7.80607244 4.13269241 14.23214271 -0.25 20.375 C-2.23 21.365 -2.23 21.365 -4.25 22.375 C-7.22 20.395 -10.19 18.415 -13.25 16.375 C-8.8355487 0.04153019 -8.8355487 0.04153019 0 0 Z " fill="#47559A" transform="translate(88.25,58.625)"/>
<path d="M0 0 C4.62 0 9.24 0 14 0 C15.12304688 4.8828125 15.12304688 4.8828125 16.24609375 9.765625 C16.80968 12.18349761 17.38669951 14.59443304 18 17 C16.90241493 17.84198307 15.79664683 18.67330671 14.6875 19.5 C14.07261719 19.9640625 13.45773438 20.428125 12.82421875 20.90625 C11 22 11 22 8 22 C2.73415818 15.22006117 0 8.56464405 0 0 Z " fill="#47549A" transform="translate(27,59)"/>
<path d="M0 0 C1.4540625 0.0309375 1.4540625 0.0309375 2.9375 0.0625 C3.5625 2.4375 3.5625 2.4375 3.9375 5.0625 C3.2775 5.7225 2.6175 6.3825 1.9375 7.0625 C1.6075 8.3825 1.2775 9.7025 0.9375 11.0625 C3.9075 11.0625 6.8775 11.0625 9.9375 11.0625 C6.1875 14.9375 6.1875 14.9375 3.9375 16.0625 C3.6075 23.6525 3.2775 31.2425 2.9375 39.0625 C0.9575 39.0625 -1.0225 39.0625 -3.0625 39.0625 C-3.06660889 38.3919458 -3.07071777 37.7213916 -3.07495117 37.03051758 C-3.10794643 33.97779609 -3.1785962 30.9270547 -3.25 27.875 C-3.25580078 26.81990234 -3.26160156 25.76480469 -3.26757812 24.67773438 C-3.28786775 18.14359206 -3.28786775 18.14359206 -6.61328125 12.82421875 C-7.42152344 12.24285156 -8.22976562 11.66148438 -9.0625 11.0625 C-6.4225 11.0625 -3.7825 11.0625 -1.0625 11.0625 C-1.0625 9.7425 -1.0625 8.4225 -1.0625 7.0625 C-2.3825 6.4025 -3.7025 5.7425 -5.0625 5.0625 C-3.9375 0.08035714 -3.9375 0.08035714 0 0 Z " fill="#6FBCCA" transform="translate(61.0625,45.9375)"/>
<path d="M0 0 C0.33 0 0.66 0 1 0 C1.33 1.65 1.66 3.3 2 5 C2.33 5 2.66 5 3 5 C3.01417969 5.65484375 3.02835938 6.3096875 3.04296875 6.984375 C3.56930774 17.05594269 6.56455544 26.90253019 14 34 C24.2124364 41.97726164 34.43065775 43.15088417 47 42 C56.19136092 40.24609297 63.0952887 35.32721004 68.59765625 27.8203125 C72.84575493 20.46354685 73.31004426 12.30006456 74 4 C74.33 4 74.66 4 75 4 C76.70259615 14.46322724 75.81546972 21.09714132 70 30 C69.61199219 30.66644531 69.22398438 31.33289063 68.82421875 32.01953125 C63.95850268 39.04074369 53.9853191 43.87879023 45.71142578 45.42871094 C34.46936655 46.65477044 23.76575847 44.72897276 14.37890625 38.16796875 C7.12570697 32.12959102 1.70240386 24.40375468 0 15 C-0.23076672 9.98333225 -0.17858676 5.02027237 0 0 Z " fill="#E6EDF3" transform="translate(22,50)"/>
<path d="M0 0 C2.9811683 3.70009957 5.24070562 7.74652386 7.5625 11.875 C7.96146484 12.56980469 8.36042969 13.26460937 8.77148438 13.98046875 C10.9839023 17.902986 12.7379488 21.64762885 14 26 C10.66666667 27.66666667 7.33333333 29.33333333 4 31 C0.37 28.36 -3.26 25.72 -7 23 C-3.62247368 20.29797894 -0.68861839 18.10778194 3 16 C2.7834375 15.26394531 2.566875 14.52789062 2.34375 13.76953125 C2.0653125 12.79371094 1.786875 11.81789063 1.5 10.8125 C1.2215625 9.84957031 0.943125 8.88664062 0.65625 7.89453125 C0.03322392 5.14654124 -0.12302812 2.80401584 0 0 Z " fill="#81CCD3" transform="translate(41,60)"/>
<path d="M0 0 C3.45925163 1.2491742 6.14693203 2.67527795 9 5 C8.34 7.97 7.68 10.94 7 14 C3.51236907 12.25618453 0.96631949 10.47193291 -2 8 C-1.566875 8.84304687 -1.13375 9.68609375 -0.6875 10.5546875 C-0.130625 11.65039062 0.42625 12.74609375 1 13.875 C1.556875 14.96554688 2.11375 16.05609375 2.6875 17.1796875 C4 20 4 20 4 22 C0.04 22 -3.92 22 -8 22 C-8.66144303 14.39340515 -6.18440363 8.03389393 -1.75 1.875 C-1.1725 1.25625 -0.595 0.6375 0 0 Z " fill="#F6F9F7" transform="translate(35,35)"/>
<path d="M0 0 C6.71054394 0.419409 11.89658348 5.58435901 16.25 10.3125 C23.53720668 19.53101555 23.98328986 28.61213134 23 40 C21.9765625 43.015625 21.9765625 43.015625 21 45 C20.34 45 19.68 45 19 45 C19.66 41.04 20.32 37.08 21 33 C17.04 33 13.08 33 9 33 C9.956581 31.22821947 10.91532988 29.45760924 11.875 27.6875 C12.40867187 26.70136719 12.94234375 25.71523438 13.4921875 24.69921875 C15 22 15 22 17 19 C17 14.60279653 14.77525676 11.91758519 11.96484375 8.77734375 C8.94064517 6.04173668 5.53527966 4.12713067 1.9765625 2.1640625 C1.32429688 1.77992187 0.67203125 1.39578125 0 1 C0 0.67 0 0.34 0 0 Z " fill="#6ABAC7" transform="translate(73,26)"/>
<path d="M0 0 C7.425 0.99 7.425 0.99 15 2 C15 2.66 15 3.32 15 4 C14.34 4 13.68 4 13 4 C12.67 5.98 12.34 7.96 12 10 C12.99 10.66 13.98 11.32 15 12 C15 13.32 15 14.64 15 16 C5.351449 16.85807272 5.351449 16.85807272 1.375 14 C-1.85819452 9.91596481 -1.57614508 8.10299928 -1 3 C-0.67 2.01 -0.34 1.02 0 0 Z " fill="#F6F9F8" transform="translate(45,41)"/>
<path d="M0 0 C1.57371717 4.13100756 2.67290218 7.57807136 2 12 C0.125 14.375 0.125 14.375 -3 16 C-6.3620202 16.31823703 -9.63457059 16.23525332 -13 16 C-12.49125088 13.4562544 -11.98501324 10.94414027 -11.3125 8.4375 C-10.94200267 5.5476208 -11.62416723 4.49336743 -13 2 C-11.39658445 1.66307215 -9.79223445 1.33058907 -8.1875 1 C-7.29417969 0.814375 -6.40085937 0.62875 -5.48046875 0.4375 C-3 0 -3 0 0 0 Z " fill="#F6FAFA" transform="translate(75,41)"/>
<path d="M0 0 C11.88 0 23.76 0 36 0 C36 0.99 36 1.98 36 3 C36.33 2.01 36.66 1.02 37 0 C41.62 0 46.24 0 51 0 C51 0.33 51 0.66 51 1 C46.71 1 42.42 1 38 1 C38 2.65 38 4.3 38 6 C38.99 5.67 39.98 5.34 41 5 C40.67 5.99 40.34 6.98 40 8 C31.75 8 23.5 8 15 8 C15.66 7.67 16.32 7.34 17 7 C17.33 6.34 17.66 5.68 18 5 C18 5.66 18 6.32 18 7 C21.465 6.505 21.465 6.505 25 6 C25 4.35 25 2.7 25 1 C22.69 1 20.38 1 18 1 C17.67 1.66 17.34 2.32 17 3 C17 2.34 17 1.68 17 1 C16.34 1 15.68 1 15 1 C15 2.65 15 4.3 15 6 C14.67 6 14.34 6 14 6 C14 4.35 14 2.7 14 1 C10.37 1 6.74 1 3 1 C3 2.98 3 4.96 3 7 C2.67 7 2.34 7 2 7 C2 5.02 2 3.04 2 1 C1.34 0.67 0.68 0.34 0 0 Z " fill="#0E0851" transform="translate(34,135)"/>
<path d="M0 0 C0.55268555 0.16298584 1.10537109 0.32597168 1.67480469 0.49389648 C4.25473034 1.05544477 6.56355224 1.1130026 9.203125 1.09765625 C10.1828125 1.09443359 11.1625 1.09121094 12.171875 1.08789062 C13.18765625 1.07951172 14.2034375 1.07113281 15.25 1.0625 C16.28125 1.05798828 17.3125 1.05347656 18.375 1.04882812 C20.91672573 1.03706088 23.45833319 1.02062011 26 1 C26 2.65 26 4.3 26 6 C17.72220459 8.18144256 9.51625723 8.47251492 1 8 C0 7 0 7 -0.0625 3.4375 C-0.041875 2.303125 -0.02125 1.16875 0 0 Z " fill="#3D2F7B" transform="translate(33,135)"/>
<path d="M0 0 C0.66 0.66 1.32 1.32 2 2 C3.67381019 1.70462173 5.33911955 1.36106097 7 1 C9.69193217 0.85778472 12.29906148 0.90996872 15 1 C15.33 1.33 15.66 1.66 16 2 C16.66 1.34 17.32 0.68 18 0 C18 2.31 18 4.62 18 7 C12.25 7.125 12.25 7.125 10 6 C10 5.01 10 4.02 10 3 C9.34 3 8.68 3 8 3 C7.67 3.99 7.34 4.98 7 6 C6.41992188 6.06058594 5.83984375 6.12117187 5.2421875 6.18359375 C0.79907137 6.66016561 -3.59905423 7.21008666 -8 8 C-8 7.01 -8 6.02 -8 5 C-8.66 5 -9.32 5 -10 5 C-9.67 6.32 -9.34 7.64 -9 9 C-10.32 9.33 -11.64 9.66 -13 10 C-14.125 6.25 -14.125 6.25 -13 4 C-10.71484375 3.5859375 -10.71484375 3.5859375 -7.9375 3.375 C-7.01839844 3.30023438 -6.09929688 3.22546875 -5.15234375 3.1484375 C-4.44207031 3.09945313 -3.73179688 3.05046875 -3 3 C-3 2.34 -3 1.68 -3 1 C-2.01 0.67 -1.02 0.34 0 0 Z " fill="#EDA46B" transform="translate(51,7)"/>
<path d="M0 0 C3.4059819 1.56340153 4.25312896 4.62779795 5.90625 7.875 C4.28607158 9.21418806 2.65995657 10.5461969 1.03125 11.875 C0.12632813 12.6175 -0.77859375 13.36 -1.7109375 14.125 C-4.09375 15.875 -4.09375 15.875 -6.09375 15.875 C-7.08375 12.245 -8.07375 8.615 -9.09375 4.875 C-2.70593274 -0.16154822 -2.70593274 -0.16154822 0 0 Z " fill="#F8FAF8" transform="translate(85.09375,35.125)"/>
<path d="M0 0 C0.5625 1.9375 0.5625 1.9375 1 4 C0.67 4.33 0.34 4.66 0 5 C0.99 5.66 1.98 6.32 3 7 C4.80602133 10.51698891 5 13.11642152 5 17 C5.91568906 19.25132517 5.91568906 19.25132517 7 21 C6.34 21 5.68 21 5 21 C5.33 22.32 5.66 23.64 6 25 C6.66 25 7.32 25 8 25 C8 25.66 8 26.32 8 27 C6.35 27 4.7 27 3 27 C3 27.66 3 28.32 3 29 C2.34 29 1.68 29 1 29 C1.0309375 27.515 1.0309375 27.515 1.0625 26 C1.07081428 21.93431926 0.56468467 18.02337824 0 14 C0.99 14 1.98 14 3 14 C3 13.34 3 12.68 3 12 C1.68 12.33 0.36 12.66 -1 13 C-1.0825 12.05125 -1.165 11.1025 -1.25 10.125 C-1.65074923 6.89538209 -1.65074923 6.89538209 -4.0625 5.625 C-4.701875 5.41875 -5.34125 5.2125 -6 5 C-6 4.34 -6 3.68 -6 3 C-2.53846154 0 -2.53846154 0 0 0 Z " fill="#EEAB75" transform="translate(102,24)"/>
<path d="M0 0 C1.32 0.33 2.64 0.66 4 1 C4 1.66 4 2.32 4 3 C7.01031744 3.93423645 7.86650268 4.04449911 11 3 C11.20625 3.61875 11.4125 4.2375 11.625 4.875 C13.54205402 7.83771985 15.70717385 7.97099183 19 9 C19.99 10.485 19.99 10.485 21 12 C21.66 11.67 22.32 11.34 23 11 C22.40138258 13.35171131 21.73075648 15.6859378 21 18 C20.34 18.33 19.68 18.66 19 19 C18.71125 18.360625 18.4225 17.72125 18.125 17.0625 C17.17176549 14.84793921 17.17176549 14.84793921 15 14 C15 13.34 15 12.68 15 12 C14.38125 11.896875 13.7625 11.79375 13.125 11.6875 C11 11 11 11 9 8 C8.01 8.495 8.01 8.495 7 9 C5.31562256 8.37943989 3.64991582 7.70710678 2 7 C0.67323492 6.64141484 -0.65835921 6.2981424 -2 6 C-1.34 4.02 -0.68 2.04 0 0 Z " fill="#EA9655" transform="translate(73,8)"/>
<path d="M0 0 C4.455 0.99 4.455 0.99 9 2 C9 4.97 9 7.94 9 11 C-0.10714286 11.26785714 -0.10714286 11.26785714 -4 9 C-2.94124926 5.59687262 -1.99097846 2.98646769 0 0 Z " fill="#F4FAFA" transform="translate(51,30)"/>
<path d="M0 0 C1.32 0.33 2.64 0.66 4 1 C4 1.99 4 2.98 4 4 C3.01 4.33 2.02 4.66 1 5 C1.2475 5.5775 1.495 6.155 1.75 6.75 C1.87375 7.86375 1.87375 7.86375 2 9 C1.401875 9.515625 0.80375 10.03125 0.1875 10.5625 C-3.24993163 14.39278096 -3.34670615 19.01433643 -4 24 C-5.65 23.67 -7.3 23.34 -9 23 C-8.91291331 21.54054712 -8.80473093 20.08234132 -8.6875 18.625 C-8.62949219 17.81289063 -8.57148438 17.00078125 -8.51171875 16.1640625 C-8 14 -8 14 -5 12 C-5.66 12 -6.32 12 -7 12 C-6.649375 11.38125 -6.29875 10.7625 -5.9375 10.125 C-5.4734375 9.073125 -5.4734375 9.073125 -5 8 C-5.33 7.34 -5.66 6.68 -6 6 C-5.38125 5.938125 -4.7625 5.87625 -4.125 5.8125 C-1.72238859 5.171081 -1.72238859 5.171081 -0.75 2.4375 C-0.37875 1.2309375 -0.37875 1.2309375 0 0 Z " fill="#EEAD79" transform="translate(20,24)"/>
<path d="M0 0 C0.33 0 0.66 0 1 0 C2.70259615 10.46322724 1.81546972 17.09714132 -4 26 C-4.38800781 26.66644531 -4.77601562 27.33289063 -5.17578125 28.01953125 C-9.68758864 34.53005462 -18.55807628 38.8232033 -26 41 C-30.73718523 41.56248582 -35.34138951 40.9317221 -40 40 C-40 39.67 -40 39.34 -40 39 C-39.18917969 38.97421875 -38.37835938 38.9484375 -37.54296875 38.921875 C-26.2598164 38.3439254 -17.21350305 36.32190996 -8.94140625 28.2421875 C-1.71386049 19.89488113 -0.8799554 10.58573214 0 0 Z " fill="#DFEBF1" transform="translate(96,54)"/>
<path d="M0 0 C2.49389537 1.24694768 2.64573541 2.11618835 3.75 4.625 C8.73609637 14.87216129 16.66000599 19.9070857 27 24 C27 24.66 27 25.32 27 26 C19.43122271 25.67092273 13.43131203 22.22256301 7.9453125 17.0703125 C4.30972104 13.06023951 1.27022429 8.91881929 -1 4 C-0.75 1.5625 -0.75 1.5625 0 0 Z " fill="#566DAC" transform="translate(23,70)"/>
<path d="M0 0 C1.98 0 3.96 0 6 0 C6.33 0.66 6.66 1.32 7 2 C7.66 1.67 8.32 1.34 9 1 C10.32 2.32 11.64 3.64 13 5 C5.33313418 8.22815403 -2.28754845 7.68259184 -10 5 C-7.61879622 2.11749016 -5.70129644 1.38961015 -2 1 C-1.67 1.33 -1.34 1.66 -1 2 C-0.67 1.34 -0.34 0.68 0 0 Z " fill="#F4EFE3" transform="translate(58,85)"/>
<path d="M0 0 C0.33 0 0.66 0 1 0 C2.10228696 4.40914783 2.07654536 8.48382401 2 13 C2.66 13 3.32 13 4 13 C4 17.29 4 21.58 4 26 C2.02 26 0.04 26 -2 26 C-2 21.71 -2 17.42 -2 13 C-1.34 13 -0.68 13 0 13 C0 8.71 0 4.42 0 0 Z " fill="#678EB3" transform="translate(60,59)"/>
<path d="M0 0 C2 2 2 2 2 7 C6.29 7 10.58 7 15 7 C15.33 7.66 15.66 8.32 16 9 C11.38 9 6.76 9 2 9 C3.50595958 15.97497071 4.84333887 21.64820833 9.01171875 27.4765625 C10 29 10 29 10 31 C10.66 31.33 11.32 31.66 12 32 C9.703125 31.8671875 9.703125 31.8671875 7 31 C5.234375 28.3828125 5.234375 28.3828125 3.75 25.125 C3.24984375 24.05507812 2.7496875 22.98515625 2.234375 21.8828125 C0.15218687 17.01998073 -0.12173542 13.02977365 -0.0625 7.8125 C-0.05798828 7.06291016 -0.05347656 6.31332031 -0.04882812 5.54101562 C-0.03706354 3.69397617 -0.01912865 1.84697787 0 0 Z " fill="#72BECB" transform="translate(25,50)"/>
<path d="M0 0 C2.31 0 4.62 0 7 0 C7 2.97 7 5.94 7 9 C1.72 9 -3.56 9 -9 9 C-8.67 7.68 -8.34 6.36 -8 5 C-1.25 4.875 -1.25 4.875 1 6 C0.67 4.02 0.34 2.04 0 0 Z " fill="#4F4584" transform="translate(86,135)"/>
<path d="M0 0 C4.0369867 1.79421631 6.64480474 3.20551875 9 7 C6.4556326 8.98254008 3.98371239 10.74876577 1 12 C-2.5 10.8125 -2.5 10.8125 -5 9 C-3.50163895 5.88801935 -1.80066242 2.9465385 0 0 Z " fill="#485399" transform="translate(74,77)"/>
<path d="M0 0 C3.5718623 3.5718623 4 8.10186234 4 13 C0.04 13 -3.92 13 -8 13 C-6.85605098 11.01974361 -5.70978896 9.04082322 -4.5625 7.0625 C-3.92441406 5.96035156 -3.28632812 4.85820313 -2.62890625 3.72265625 C-1 1 -1 1 0 0 Z " fill="#F3F8F6" transform="translate(91,44)"/>
<path d="M0 0 C2.3125 2.375 2.3125 2.375 4 5 C3.67 5.99 3.34 6.98 3 8 C-0.3 8.33 -3.6 8.66 -7 9 C-7 6.03 -7 3.06 -7 0 C-3.80484947 -1.06505018 -3.00991004 -1.27693153 0 0 Z " fill="#F8FBFB" transform="translate(69,32)"/>
<path d="M0 0 C0.67675781 0.00064453 1.35351562 0.00128906 2.05078125 0.00195312 C5.13005603 0.02928397 7.55902474 0.20717491 10.5 1.1875 C10.5 1.8475 10.5 2.5075 10.5 3.1875 C5.14954198 5.62040754 0.30027864 5.78752882 -5.5 5.1875 C-8.6875 3.6875 -8.6875 3.6875 -10.5 2.1875 C-6.86758231 -0.23411179 -4.19004984 -0.07581995 0 0 Z " fill="#EFF7F8" transform="translate(60.5,24.8125)"/>
<path d="M0 0 C4.62 0 9.24 0 14 0 C14 0.33 14 0.66 14 1 C9.71 1 5.42 1 1 1 C1 2.65 1 4.3 1 6 C1.99 5.67 2.98 5.34 4 5 C3.67 5.99 3.34 6.98 3 8 C-0.63 8 -4.26 8 -8 8 C-8.66 6.68 -9.32 5.36 -10 4 C-9.67 3.01 -9.34 2.02 -9 1 C-7.35 1 -5.7 1 -4 1 C-4 2.65 -4 4.3 -4 6 C-3.34 6 -2.68 6 -2 6 C-1.67 5.01 -1.34 4.02 -1 3 C-0.67 2.01 -0.34 1.02 0 0 Z " fill="#291E68" transform="translate(71,135)"/>
<path d="M0 0 C2.1875 2.3125 2.1875 2.3125 4 5 C3 8 3 8 0 10 C-3.37494032 9.67339287 -5.42357133 8.11635213 -8 6 C-6.72879117 2.18637351 -4.19078006 0 0 0 Z " fill="#465198" transform="translate(47,78)"/>
<path d="M0 0 C2.91035231 0.90082334 5.14730886 2.04272062 7.625 3.8125 C7.625 4.4725 7.625 5.1325 7.625 5.8125 C4.8125 8 4.8125 8 1.625 9.8125 C-2.76658329 8.3486389 -3.25447433 5.83418662 -5.375 1.8125 C-2.375 -0.1875 -2.375 -0.1875 0 0 Z " fill="#F7FAFB" transform="translate(75.375,28.1875)"/>
<path d="M0 0 C3.04355645 3.77480053 5.36526811 7.91974724 7.75 12.125 C8.17410156 12.85332031 8.59820312 13.58164063 9.03515625 14.33203125 C10.08747764 16.18644777 11.05149458 18.09039837 12 20 C11.67 20.66 11.34 21.32 11 22 C10.34 20.68 9.68 19.36 9 18 C8.34 18 7.68 18 7 18 C6.67 18.66 6.34 19.32 6 20 C6 19.34 6 18.68 6 18 C5.34 17.67 4.68 17.34 4 17 C2.9296875 14.453125 2.9296875 14.453125 1.875 11.25 C1.52179687 10.20328125 1.16859375 9.1565625 0.8046875 8.078125 C0.05686809 5.21753424 -0.16304897 2.93488144 0 0 Z " fill="#5D84B6" transform="translate(41,60)"/>
<path d="M0 0 C0 0.33 0 0.66 0 1 C-4.95 1.33 -9.9 1.66 -15 2 C-14.34 2.66 -13.68 3.32 -13 4 C-13.96099609 4.25523438 -13.96099609 4.25523438 -14.94140625 4.515625 C-20.50365317 6.07404888 -25.11323714 7.91921472 -30 11 C-30 8 -30 8 -28.625 6.0625 C-19.8562894 -0.82720119 -10.59834548 -0.47337523 0 0 Z " fill="#E8EFF4" transform="translate(68,20)"/>
<path d="M0 0 C-1.33488128 3.59391114 -2.96022723 6.75490696 -5 10 C-8.65316671 8.75023244 -9.78065836 8.32901247 -12 5 C-7.90746174 1.10234452 -5.90669543 -0.70317803 0 0 Z " fill="#F2F9F9" transform="translate(50,28)"/>
<path d="M0 0 C7.26 0 14.52 0 22 0 C21.34 1.32 20.68 2.64 20 4 C16.91674642 4.0582253 13.83363495 4.09367134 10.75 4.125 C9.44095703 4.15013672 9.44095703 4.15013672 8.10546875 4.17578125 C7.26113281 4.18222656 6.41679688 4.18867187 5.546875 4.1953125 C4.77182617 4.20578613 3.99677734 4.21625977 3.19824219 4.22705078 C0.74116461 3.97326556 -0.87311542 3.22444152 -3 2 C-2.01 2 -1.02 2 0 2 C0 1.34 0 0.68 0 0 Z " fill="#677BB4" transform="translate(50,94)"/>
<path d="M0 0 C1.13598633 0.00483398 1.13598633 0.00483398 2.29492188 0.00976562 C3.47344727 0.02233398 3.47344727 0.02233398 4.67578125 0.03515625 C5.47306641 0.03966797 6.27035156 0.04417969 7.09179688 0.04882812 C9.05732382 0.06059775 11.0228121 0.07853277 12.98828125 0.09765625 C12.98828125 0.42765625 12.98828125 0.75765625 12.98828125 1.09765625 C5.06828125 1.59265625 5.06828125 1.59265625 -3.01171875 2.09765625 C-3.01171875 2.75765625 -3.01171875 3.41765625 -3.01171875 4.09765625 C-4.94639817 4.93751709 -6.88457004 5.76933652 -8.82421875 6.59765625 C-10.44263672 7.29375 -10.44263672 7.29375 -12.09375 8.00390625 C-15.01171875 9.09765625 -15.01171875 9.09765625 -18.01171875 9.09765625 C-17.01171875 6.09765625 -17.01171875 6.09765625 -14.83203125 4.74609375 C-13.94257812 4.32585938 -13.053125 3.905625 -12.13671875 3.47265625 C-10.81027344 2.83457031 -10.81027344 2.83457031 -9.45703125 2.18359375 C-6.15949643 0.7191933 -3.5797568 -0.02691546 0 0 Z " fill="#677CB4" transform="translate(55.01171875,16.90234375)"/>
<path d="M0 0 C0.99 0.66 1.98 1.32 3 2 C2.875 3.875 2.875 3.875 2 6 C-1.0625 7.25 -1.0625 7.25 -4 8 C-4 8.66 -4 9.32 -4 10 C-5.32 10.33 -6.64 10.66 -8 11 C-8.99 9.35 -9.98 7.7 -11 6 C-9.865625 5.71125 -8.73125 5.4225 -7.5625 5.125 C-6.386875 4.75375 -5.21125 4.3825 -4 4 C-3.67 3.34 -3.34 2.68 -3 2 C-2.67 2.33 -2.34 2.66 -2 3 C-1.34 2.01 -0.68 1.02 0 0 Z " fill="#EB9C65" transform="translate(34,13)"/>
<path d="M0 0 C0.94875 0.04125 1.8975 0.0825 2.875 0.125 C3.5625 2.4375 3.5625 2.4375 3.875 5.125 C2.4375 6.9375 2.4375 6.9375 0.875 8.125 C-1.5625 7.375 -1.5625 7.375 -4.125 6.125 C-5.0625 4.125 -5.0625 4.125 -5.125 2.125 C-3.125 0.125 -3.125 0.125 0 0 Z " fill="#586DAB" transform="translate(61.125,45.875)"/>
<path d="M0 0 C6.93 0 13.86 0 21 0 C21 0.33 21 0.66 21 1 C19.02 1.33 17.04 1.66 15 2 C15 3.65 15 5.3 15 7 C12.03 7 9.06 7 6 7 C6 5.68 6 4.36 6 3 C8 3 10 3 12 3 C12.33 2.34 12.66 1.68 13 1 C8.71 1 4.42 1 0 1 C0 0.67 0 0.34 0 0 Z " fill="#A6A1C1" transform="translate(72,134)"/>
<path d="M0 0 C0.33 0 0.66 0 1 0 C1.50740908 9.52801503 0.63080055 17.14992367 -3 26 C-3.99 25.67 -4.98 25.34 -6 25 C-5.55005243 23.20620902 -5.08975857 21.41501072 -4.625 19.625 C-4.36976562 18.62726563 -4.11453125 17.62953125 -3.8515625 16.6015625 C-3 14 -3 14 -1 12 C-0.53603307 9.10776497 -0.53603307 9.10776497 -0.375 5.875 C-0.26285156 4.23144531 -0.26285156 4.23144531 -0.1484375 2.5546875 C-0.09945312 1.71164063 -0.05046875 0.86859375 0 0 Z " fill="#6B7FB6" transform="translate(101,50)"/>
<path d="M0 0 C2.93756119 -0.0269501 5.87487555 -0.04681474 8.8125 -0.0625 C9.64587891 -0.07087891 10.47925781 -0.07925781 11.33789062 -0.08789062 C12.14033203 -0.09111328 12.94277344 -0.09433594 13.76953125 -0.09765625 C14.87711792 -0.10551147 14.87711792 -0.10551147 16.00708008 -0.11352539 C18 0 18 0 21 1 C21 1.99 21 2.98 21 4 C13.74 3.34 6.48 2.68 -1 2 C-0.67 1.34 -0.34 0.68 0 0 Z " fill="#F8FBFC" transform="translate(53,21)"/>
<path d="M0 0 C3.3 0 6.6 0 10 0 C10 1.65 10 3.3 10 5 C3.375 6.125 3.375 6.125 0 5 C0 3.35 0 1.7 0 0 Z " fill="#7C72A5" transform="translate(49,136)"/>
<path d="M0 0 C1.65 0 3.3 0 5 0 C5.33 0.99 5.66 1.98 6 3 C5.34 3 4.68 3 4 3 C4.33 4.32 4.66 5.64 5 7 C5.66 7 6.32 7 7 7 C7 7.66 7 8.32 7 9 C5.35 9 3.7 9 2 9 C2 9.66 2 10.32 2 11 C1.34 11 0.68 11 0 11 C0 7.37 0 3.74 0 0 Z " fill="#EEAA72" transform="translate(103,42)"/>
<path d="M0 0 C0.66 0.33 1.32 0.66 2 1 C2 1.99 2 2.98 2 4 C3.98 4 5.96 4 8 4 C8 4.33 8 4.66 8 5 C1.90218999 5.22084624 -3.21642935 5.01167675 -9 3 C-5.84997987 -0.29320286 -4.47977254 -1.39992892 0 0 Z " fill="#E8EEE9" transform="translate(57,87)"/>
<path d="M0 0 C2.31 0 4.62 0 7 0 C7 1.65 7 3.3 7 5 C7.99 5.33 8.98 5.66 10 6 C3.55192878 7.33827893 3.55192878 7.33827893 1.0625 5.8125 C0 4 0 4 0 0 Z " fill="#40317D" transform="translate(41,136)"/>
<path d="M0 0 C1.875 1.1875 1.875 1.1875 2.875 3.1875 C3.535 2.8575 4.195 2.5275 4.875 2.1875 C4.27638258 4.53921131 3.60575648 6.8734378 2.875 9.1875 C1.885 9.6825 1.885 9.6825 0.875 10.1875 C0.6275 9.61 0.38 9.0325 0.125 8.4375 C-1.06490475 6.05300111 -1.06490475 6.05300111 -3.25 4.0625 C-3.86875 3.44375 -4.4875 2.825 -5.125 2.1875 C-5.125 1.5275 -5.125 0.8675 -5.125 0.1875 C-2.125 -0.8125 -2.125 -0.8125 0 0 Z " fill="#EFB182" transform="translate(91.125,16.8125)"/>
<path d="M0 0 C5.61 0.66 11.22 1.32 17 2 C16.34 2.66 15.68 3.32 15 4 C13.68 4 12.36 4 11 4 C11 6.97 11 9.94 11 13 C10.67 13 10.34 13 10 13 C10 10.03 10 7.06 10 4 C4.35286822 2.89138745 4.35286822 2.89138745 -1 4 C-0.67 2.68 -0.34 1.36 0 0 Z " fill="#66BCC4" transform="translate(50,28)"/>
<path d="M0 0 C1.9375 0.3125 1.9375 0.3125 4 1 C4.33 1.99 4.66 2.98 5 4 C5.99 4.99 6.98 5.98 8 7 C5.03 7 2.06 7 -1 7 C-1 3 -1 3 0 0 Z " fill="#EFAE7D" transform="translate(73,8)"/>
<path d="M0 0 C0.99 0.33 1.98 0.66 3 1 C2.06409496 2.1055189 1.12620142 3.20935453 0.1875 4.3125 C-0.33457031 4.92738281 -0.85664062 5.54226562 -1.39453125 6.17578125 C-4.3373102 9.51952278 -4.3373102 9.51952278 -6 11 C-6.66 11 -7.32 11 -8 11 C-7.43040847 7.37386801 -6.07625466 5.74482259 -3.4375 3.25 C-2.79683594 2.63640625 -2.15617187 2.0228125 -1.49609375 1.390625 C-1.00238281 0.93171875 -0.50867187 0.4728125 0 0 Z " fill="#546BAB" transform="translate(35,25)"/>
<path d="M0 0 C1.32 0.33 2.64 0.66 4 1 C4 1.99 4 2.98 4 4 C3.01 4.33 2.02 4.66 1 5 C1 5.66 1 6.32 1 7 C-0.98 7.99 -0.98 7.99 -3 9 C-3.99 8.01 -4.98 7.02 -6 6 C-5.38125 5.938125 -4.7625 5.87625 -4.125 5.8125 C-1.72238859 5.171081 -1.72238859 5.171081 -0.75 2.4375 C-0.5025 1.633125 -0.255 0.82875 0 0 Z " fill="#EA9356" transform="translate(20,24)"/>
<path d="M0 0 C0.33 0 0.66 0 1 0 C1.03738281 0.79664063 1.07476563 1.59328125 1.11328125 2.4140625 C1.48780612 8.45052221 2.16476762 12.59955737 5 18 C4.1875 20.375 4.1875 20.375 3 22 C-0.24129951 17.13805073 -0.13294839 12.98341492 -0.0625 7.25 C-0.05798828 6.55261719 -0.05347656 5.85523438 -0.04882812 5.13671875 C-0.0371002 3.42444197 -0.01916653 1.71220967 0 0 Z " fill="#6E81B7" transform="translate(19,50)"/>
<path d="M0 0 C0.73863281 0.20496094 1.47726563 0.40992187 2.23828125 0.62109375 C9.17327404 2.46278815 15.83749337 3.59111675 23 4 C23 4.33 23 4.66 23 5 C7.25512528 5.55353075 7.25512528 5.55353075 0 2 C0 1.34 0 0.68 0 0 Z " fill="#F1F7F9" transform="translate(44,90)"/>
<path d="M0 0 C1.46726798 3.81489674 0.43336419 6.29011622 -1 10 C-1.33 9.01 -1.66 8.02 -2 7 C-4.00016466 5.79117904 -4.00016466 5.79117904 -6 5 C-6 4.34 -6 3.68 -6 3 C-2.53846154 0 -2.53846154 0 0 0 Z " fill="#EA9556" transform="translate(102,24)"/>
<path d="M0 0 C1.98 0 3.96 0 6 0 C5.51917969 0.38800781 5.03835937 0.77601562 4.54296875 1.17578125 C2.54250502 3.54088647 2.51123932 5.12691453 2.3125 8.1875 C2.24675781 9.08855469 2.18101563 9.98960938 2.11328125 10.91796875 C2.07589844 11.60503906 2.03851563 12.29210937 2 13 C1.34 13 0.68 13 0 13 C0 8.71 0 4.42 0 0 Z " fill="#495096" transform="translate(62,59)"/>
<path d="M0 0 C0.33 0 0.66 0 1 0 C1 2.31 1 4.62 1 7 C-0.98 7 -2.96 7 -5 7 C-4.67 6.01 -4.34 5.02 -4 4 C-4.66 4 -5.32 4 -6 4 C-5.67 3.01 -5.34 2.02 -5 1 C-3.02 1.495 -3.02 1.495 -1 2 C-0.67 1.34 -0.34 0.68 0 0 Z " fill="#F1B886" transform="translate(68,7)"/>
<path d="M0 0 C0.33 0 0.66 0 1 0 C2.10228696 4.40914783 2.07654536 8.48382401 2 13 C2.66 13 3.32 13 4 13 C4 13.66 4 14.32 4 15 C2.02 15 0.04 15 -2 15 C-2 14.34 -2 13.68 -2 13 C-1.34 13 -0.68 13 0 13 C0 8.71 0 4.42 0 0 Z " fill="#8AD8D5" transform="translate(60,59)"/>
<path d="M0 0 C2.91843445 2.626591 4.94517315 5.66976339 7 9 C7 9.66 7 10.32 7 11 C7.66 11.33 8.32 11.66 9 12 C6.67578125 11.81640625 6.67578125 11.81640625 4 11 C2.41796875 8.71484375 2.41796875 8.71484375 1.1875 5.9375 C0.76855469 5.01839844 0.34960938 4.09929687 -0.08203125 3.15234375 C-0.38496094 2.44207031 -0.68789063 1.73179688 -1 1 C-0.67 0.67 -0.34 0.34 0 0 Z " fill="#7BC3CE" transform="translate(28,70)"/>
<path d="M0 0 C1.65 0 3.3 0 5 0 C5 4.29 5 8.58 5 13 C4.34 13 3.68 13 3 13 C2.92652344 11.96939453 2.92652344 11.96939453 2.8515625 10.91796875 C2.77679688 10.01691406 2.70203125 9.11585937 2.625 8.1875 C2.55539063 7.29417969 2.48578125 6.40085937 2.4140625 5.48046875 C2.13354964 2.75601501 2.13354964 2.75601501 0 0 Z " fill="#42519C" transform="translate(55,59)"/>
<path d="M0 0 C0.33 0 0.66 0 1 0 C1 2.97 1 5.94 1 9 C2.32 9.33 3.64 9.66 5 10 C3.68 10 2.36 10 1 10 C1.33 11.32 1.66 12.64 2 14 C0.35 14 -1.3 14 -3 14 C-2.34 13.67 -1.68 13.34 -1 13 C-1 12.01 -1 11.02 -1 10 C-2.65 10 -4.3 10 -6 10 C-6 9.67 -6 9.34 -6 9 C-4.02 9 -2.04 9 0 9 C0 6.03 0 3.06 0 0 Z " fill="#90C6D1" transform="translate(61,32)"/>
<path d="M0 0 C2.96829447 3.3730619 4.06350475 6.62968884 5 11 C4.625 13.4375 4.625 13.4375 4 15 C1.0554321 10.00703705 0.36504064 5.66442374 0 0 Z " fill="#83D1D8" transform="translate(41,60)"/>
<path d="M0 0 C0.33 0 0.66 0 1 0 C1 1.65 1 3.3 1 5 C1.99 5.33 2.98 5.66 4 6 C4 6.33 4 6.66 4 7 C-0.62 7 -5.24 7 -10 7 C-9.34 6.67 -8.68 6.34 -8 6 C-7.67 5.34 -7.34 4.68 -7 4 C-7 4.66 -7 5.32 -7 6 C-3.535 5.505 -3.535 5.505 0 5 C0 3.35 0 1.7 0 0 Z " fill="#2A196F" transform="translate(59,136)"/>
<path d="M0 0 C1.65 0 3.3 0 5 0 C5 1.98 5 3.96 5 6 C3.68 6 2.36 6 1 6 C0.67 4.02 0.34 2.04 0 0 Z " fill="#FCFBF7" transform="translate(58,85)"/>
<path d="M0 0 C0.33 0.66 0.66 1.32 1 2 C0.34 2 -0.32 2 -1 2 C-0.67 3.98 -0.34 5.96 0 8 C-1.65 8 -3.3 8 -5 8 C-4.67 5.69 -4.34 3.38 -4 1 C-2.68 0.67 -1.36 0.34 0 0 Z " fill="#4C4383" transform="translate(92,135)"/>
<path d="M0 0 C1 3 1 3 0.0625 5.1875 C-0.4634375 6.0846875 -0.4634375 6.0846875 -1 7 C-1.66 7 -2.32 7 -3 7 C-3.66 6.01 -4.32 5.02 -5 4 C-4.67 3.01 -4.34 2.02 -4 1 C-2 0 -2 0 0 0 Z " fill="#657CB3" transform="translate(63,47)"/>
<path d="M0 0 C1.65 0 3.3 0 5 0 C5 2.31 5 4.62 5 7 C3.35 6.67 1.7 6.34 0 6 C0 4.02 0 2.04 0 0 Z " fill="#EB9958" transform="translate(11,41)"/>
<path d="M0 0 C0.33 0 0.66 0 1 0 C1.22185844 2.26955186 1.42705515 4.54073755 1.625 6.8125 C1.74101563 8.07707031 1.85703125 9.34164062 1.9765625 10.64453125 C2 14 2 14 0 17 C-0.98844951 13.05352382 -0.96191905 9.72607036 -0.5625 5.6875 C-0.46066406 4.61886719 -0.35882813 3.55023438 -0.25390625 2.44921875 C-0.17011719 1.64097656 -0.08632812 0.83273438 0 0 Z " fill="#D7EBEF" transform="translate(96,54)"/>
<path d="M0 0 C0.33 0 0.66 0 1 0 C1.33 1.65 1.66 3.3 2 5 C2.33 5 2.66 5 3 5 C3.3367697 9.93928888 3.16130459 10.78492722 0 15 C0 10.05 0 5.1 0 0 Z " fill="#E0E9F0" transform="translate(22,50)"/>
<path d="M0 0 C6.75 0.875 6.75 0.875 9 2 C8.67 2.99 8.34 3.98 8 5 C6.02 4.34 4.04 3.68 2 3 C2 2.34 2 1.68 2 1 C1.34 0.67 0.68 0.34 0 0 Z " fill="#6277B1" transform="translate(68,18)"/>
<path d="M0 0 C0.66 0.66 1.32 1.32 2 2 C2.99 2 3.98 2 5 2 C3.515 4.475 3.515 4.475 2 7 C0.68 6.67 -0.64 6.34 -2 6 C-2 4.35 -2 2.7 -2 1 C-1.34 0.67 -0.68 0.34 0 0 Z " fill="#EC9D5C" transform="translate(51,7)"/>
<path d="M0 0 C1.5 1.375 1.5 1.375 3 3 C3 3.66 3 4.32 3 5 C3.99 4.67 4.98 4.34 6 4 C6 6.31 6 8.62 6 11 C2.90407165 7.4912812 1.25805377 4.50802601 0 0 Z " fill="#ED8E29" transform="translate(52,78)"/>
<path d="M0 0 C6.70212766 1.93617021 6.70212766 1.93617021 9 5 C9 5.66 9 6.32 9 7 C5.88626628 5.50079488 2.87771795 3.91847864 0 2 C0 1.34 0 0.68 0 0 Z " fill="#88D5D8" transform="translate(74,75)"/>
<path d="M0 0 C0.99 0.495 0.99 0.495 2 1 C2.4140625 3.28515625 2.4140625 3.28515625 2.625 6.0625 C2.69976563 6.98160156 2.77453125 7.90070313 2.8515625 8.84765625 C2.92503906 9.91306641 2.92503906 9.91306641 3 11 C2.34 11 1.68 11 1 11 C-0.28317892 7.15046324 -0.06643637 4.05261865 0 0 Z " fill="#F4F9FA" transform="translate(23,60)"/>
<path d="M0 0 C0.66 1.32 1.32 2.64 2 4 C2.66 3.67 3.32 3.34 4 3 C2.81323934 7.10801767 2.10551666 8.89448334 -1 12 C-0.67 8.04 -0.34 4.08 0 0 Z " fill="#ED8E2A" transform="translate(65,77)"/>
<path d="M0 0 C0.66 0.33 1.32 0.66 2 1 C1.67 2.32 1.34 3.64 1 5 C-0.65 5.33 -2.3 5.66 -4 6 C-3.67 4.35 -3.34 2.7 -3 1 C-2.01 1.33 -1.02 1.66 0 2 C0 1.34 0 0.68 0 0 Z " fill="#ECA46C" transform="translate(16,36)"/>
<path d="M0 0 C1.65 0 3.3 0 5 0 C4.67 1.65 4.34 3.3 4 5 C2.68 4.67 1.36 4.34 0 4 C0 2.68 0 1.36 0 0 Z " fill="#8A82AE" transform="translate(62,136)"/>
<path d="M0 0 C1.65 0 3.3 0 5 0 C4.67 1.32 4.34 2.64 4 4 C2.68 4.33 1.36 4.66 0 5 C0 3.35 0 1.7 0 0 Z " fill="#9790B8" transform="translate(72,136)"/>
<path d="M0 0 C0.66 0.33 1.32 0.66 2 1 C-0.52788007 3.79872437 -2.20411134 5.45773019 -6 6 C-4.98545548 3.4636387 -4.3146444 2.20648539 -2 0.6875 C-1.34 0.460625 -0.68 0.23375 0 0 Z " fill="#86D2D7" transform="translate(44,76)"/>
<path d="M0 0 C0.99 0.33 1.98 0.66 3 1 C3 2.98 3 4.96 3 7 C2.01 7 1.02 7 0 7 C0 4.69 0 2.38 0 0 Z " fill="#8277AA" transform="translate(33,135)"/>
<path d="M0 0 C2.475 0.495 2.475 0.495 5 1 C4.34 2.32 3.68 3.64 3 5 C2.01 5 1.02 5 0 5 C0 3.35 0 1.7 0 0 Z " fill="#9F98BD" transform="translate(49,136)"/>
<path d="M0 0 C1.65 0 3.3 0 5 0 C5 1.32 5 2.64 5 4 C3.35 4 1.7 4 0 4 C0 2.68 0 1.36 0 0 Z " fill="#9389B5" transform="translate(42,137)"/>
<path d="M0 0 C2.64 0.99 5.28 1.98 8 3 C8 3.66 8 4.32 8 5 C3.48279689 5.36625971 3.48279689 5.36625971 1.1875 3.625 C0 2 0 2 0 0 Z " fill="#5F75B0" transform="translate(42,91)"/>
<path d="M0 0 C0.66 0 1.32 0 2 0 C1.45276317 3.37462715 0.9451 5.08235 -1 8 C-1.66 7.67 -2.32 7.34 -3 7 C-2.01 4.69 -1.02 2.38 0 0 Z " fill="#EDF4F7" transform="translate(94,70)"/>
</svg>
